#!OML:ASF H:\LiuWeirdWalks\Patient Classification 1\Patient 1\Session 1\male.ASF
:FULLY-SPECIFIED
:DEGREES
520
root 2.25004 18.0936 -14.1532 3.01354 1.38061 -6.4003
lowerback 1.83855 2.38867 3.20753
upperback -1.75964 3.36503 2.81339
thorax -2.82671 1.64494 0.956211
lowerneck -17.7618 -0.728892 4.59935
upperneck 23.1876 -1.41758 -3.6317
head 10.2829 -0.677479 -2.25934
rclavicle -2.36352e-014 -1.45113e-014
rhumerus -38.2705 -13.474 -73.2525
rradius 31.8399
rwrist -7.75181
rhand -17.1042 -3.9052
rfingers 7.12502
rthumb 9.13482 -33.6874
lclavicle -2.36352e-014 -1.45113e-014
lhumerus -46.1676 -2.29575 83.773
lradius 38.9601
lwrist 14.4985
lhand -12.7941 1.41475
lfingers 7.12502
lthumb 13.2916 30.9709
rfemur 9.64034 -4.86198 23.3992
rtibia 32.6079
rfoot 6.80281 -1.13374
rtoes -17.779
lfemur -20.2103 -0.371537 -17.4853
ltibia 29.6415
lfoot -10.1197 9.51889
ltoes -5.66181
521
root 2.27254 18.0946 -14.0871 2.96118 1.12116 -6.25422
lowerback 1.8686 2.36206 3.08576
upperback -1.7351 3.32535 2.78757
thorax -2.82356 1.62744 0.998075
lowerneck -17.7404 -0.687071 4.60284
upperneck 23.1792 -1.34798 -3.67528
head 10.2786 -0.650698 -2.2656
rclavicle -3.49053e-014 1.15295e-014
rhumerus -38.2899 -13.5085 -73.1829
rradius 31.7065
rwrist -7.67412
rhand -17.1221 -3.99109
rfingers 7.12502
rthumb 9.11756 -33.774
lclavicle -3.49053e-014 1.15295e-014
lhumerus -45.9943 -2.23149 83.7807
lradius 38.9463
lwrist 14.5169
lhand -12.7799 1.44803
lfingers 7.12502
lthumb 13.3054 31.0033
rfemur 9.19867 -5.01016 22.8119
rtibia 33.8187
rfoot 7.39279 -0.453326
rtoes -17.0723
lfemur -19.7969 -0.217685 -17.7288
ltibia 29.5331
lfoot -10.1498 9.62578
ltoes -5.18923
522
root 2.29475 18.0955 -14.0218 2.90488 0.870117 -6.07674
lowerback 1.88388 2.33314 2.93251
upperback -1.69987 3.28014 2.75314
thorax -2.80212 1.60795 1.04975
lowerneck -17.7264 -0.641609 4.6358
upperneck 23.1477 -1.27546 -3.74612
head 10.2671 -0.623574 -2.28575
rclavicle -2.29845e-015 9.74045e-015
rhumerus -38.3046 -13.5446 -73.1208
rradius 31.5949
rwrist -7.61717
rhand -17.1587 -4.09701
rfingers 7.12502
rthumb 9.08225 -33.8815
lclavicle -2.29845e-015 9.74045e-015
lhumerus -45.7847 -2.18422 83.7967
lradius 38.9058
lwrist 14.5323
lhand -12.7621 1.47438
lfingers 7.12502
lthumb 13.3225 31.0285
rfemur 8.72418 -5.14688 22.1963
rtibia 35.0784
rfoot 8.06501 0.194866
rtoes -16.0932
lfemur -19.3698 -0.0536346 -18.009
ltibia 29.3976
lfoot -10.172 9.71019
ltoes -4.76434
523
root 2.31673 18.0967 -13.9573 2.84428 0.619976 -5.88161
lowerback 1.90143 2.30364 2.76003
upperback -1.66504 3.23366 2.71635
thorax -2.78312 1.5881 1.10969
lowerneck -17.6944 -0.585047 4.6783
upperneck 23.1101 -1.18916 -3.81765
head 10.2507 -0.589268 -2.30552
rclavicle -3.54458e-014 2.38542e-015
rhumerus -38.3354 -13.5728 -73.0571
rradius 31.5075
rwrist -7.57861
rhand -17.204 -4.18955
rfingers 7.12502
rthumb 9.03849 -33.9759
lclavicle -3.54458e-014 2.38542e-015
lhumerus -45.562 -2.14995 83.8237
lradius 38.8473
lwrist 14.5242
lhand -12.7513 1.48689
lfingers 7.12502
lthumb 13.3329 31.0403
rfemur 8.21589 -5.26881 21.5685
rtibia 36.3764
rfoot 8.82736 0.812653
rtoes -14.7919
lfemur -18.9302 0.107689 -18.3084
ltibia 29.2361
lfoot -10.1982 9.80005
ltoes -4.41745
524
root 2.3381 18.0983 -13.8939 2.78035 0.380119 -5.68006
lowerback 1.91102 2.27063 2.57654
upperback -1.63041 3.18179 2.67899
thorax -2.7602 1.56576 1.17579
lowerneck -17.6297 -0.528571 4.68912
upperneck 23.097 -1.1044 -3.84083
head 10.2377 -0.552103 -2.30306
rclavicle -1.2716e-014 -9.34288e-015
rhumerus -38.3822 -13.5962 -72.9936
rradius 31.442
rwrist -7.55245
rhand -17.2556 -4.26356
rfingers 7.12502
rthumb 8.98869 -34.0521
lclavicle -1.2716e-014 -9.34288e-015
lhumerus -45.3252 -2.13131 83.8575
lradius 38.7683
lwrist 14.5115
lhand -12.7273 1.49002
lfingers 7.12502
lthumb 13.356 31.042
rfemur 7.67502 -5.37828 20.949
rtibia 37.7037
rfoot 9.66058 1.3799
rtoes -13.205
lfemur -18.4821 0.252428 -18.6115
ltibia 29.0495
lfoot -10.2225 9.89825
ltoes -4.13229
525
root 2.35899 18.1003 -13.8314 2.71211 0.145615 -5.46989
lowerback 1.93043 2.23436 2.38474
upperback -1.60104 3.12593 2.63896
thorax -2.7483 1.54138 1.24347
lowerneck -17.5481 -0.46018 4.71866
upperneck 23.0849 -1.00699 -3.86599
head 10.2224 -0.507549 -2.3026
rclavicle -6.35956e-015 2.88238e-014
rhumerus -38.429 -13.6418 -72.9176
rradius 31.3588
rwrist -7.49835
rhand -17.2971 -4.29697
rfingers 7.12502
rthumb 8.94867 -34.0872
lclavicle -6.35956e-015 2.88238e-014
lhumerus -45.0831 -2.12378 83.8943
lradius 38.6686
lwrist 14.4856
lhand -12.707 1.44734
lfingers 7.12502
lthumb 13.3756 30.998
rfemur 7.10328 -5.47768 20.3321
rtibia 39.0483
rfoot 10.5705 1.92238
rtoes -11.2942
lfemur -18.0263 0.378727 -18.9217
ltibia 28.8413
lfoot -10.2428 10.0152
ltoes -3.88409
526
root 2.37914 18.1024 -13.7705 2.6477 -0.0734491 -5.26209
lowerback 1.96619 2.19459 2.19347
upperback -1.5869 3.06662 2.59697
thorax -2.7609 1.515 1.30809
lowerneck -17.4895 -0.394201 4.76309
upperneck 23.1254 -0.917354 -3.8926
head 10.23 -0.464962 -2.30764
rclavicle 1.3404e-014 8.74653e-015
rhumerus -38.4879 -13.7226 -72.8225
rradius 31.2563
rwrist -7.41339
rhand -17.3348 -4.29191
rfingers 7.12502
rthumb 8.91226 -34.0837
lclavicle 1.3404e-014 8.74653e-015
lhumerus -44.8423 -2.13168 83.9299
lradius 38.5598
lwrist 14.4442
lhand -12.6861 1.42511
lfingers 7.12502
lthumb 13.3958 30.9744
rfemur 6.49225 -5.56941 19.7366
rtibia 40.4012
rfoot 11.5412 2.44708
rtoes -9.06015
lfemur -17.5761 0.494633 -19.2259
ltibia 28.6153
lfoot -10.2595 10.1298
ltoes -3.66678
527
root 2.39858 18.1047 -13.7112 2.58293 -0.276539 -5.06258
lowerback 2.01298 2.15065 2.0116
upperback -1.57649 3.00245 2.55403
thorax -2.78271 1.48592 1.36631
lowerneck -17.4646 -0.335898 4.78922
upperneck 23.2275 -0.841396 -3.89065
head 10.266 -0.426384 -2.30296
rclavicle 2.3059e-014 2.40529e-014
rhumerus -38.5386 -13.8339 -72.7208
rradius 31.1399
rwrist -7.31418
rhand -17.3588 -4.26658
rfingers 7.12502
rthumb 8.88912 -34.0593
lclavicle 2.3059e-014 2.40529e-014
lhumerus -44.5897 -2.15638 83.9637
lradius 38.4365
lwrist 14.3901
lhand -12.6614 1.34922
lfingers 7.12502
lthumb 13.4195 30.897
rfemur 5.85388 -5.65087 19.1691
rtibia 41.7502
rfoot 12.5392 2.95252
rtoes -6.54011
lfemur -17.1315 0.595374 -19.5181
ltibia 28.3774
lfoot -10.2655 10.2477
ltoes -3.46038
528
root 2.4174 18.1071 -13.6534 2.52329 -0.458106 -4.85704
lowerback 2.06023 2.09874 1.82075
upperback -1.56822 2.92726 2.51117
thorax -2.80703 1.45155 1.43021
lowerneck -17.4884 -0.276517 4.82449
upperneck 23.3605 -0.766525 -3.8965
head 10.3225 -0.388424 -2.30391
rclavicle -3.11455e-014 -1.37161e-014
rhumerus -38.5829 -13.9565 -72.6147
rradius 31.0232
rwrist -7.2089
rhand -17.369 -4.23238
rfingers 7.12502
rthumb 8.87928 -34.0256
lclavicle -3.11455e-014 -1.37161e-014
lhumerus -44.3235 -2.17893 83.9971
lradius 38.3074
lwrist 14.3308
lhand -12.6404 1.27226
lfingers 7.12502
lthumb 13.4398 30.8187
rfemur 5.18674 -5.72296 18.6153
rtibia 43.0908
rfoot 13.484 3.45073
rtoes -3.95899
lfemur -16.7002 0.690051 -19.8164
ltibia 28.1316
lfoot -10.2552 10.3487
ltoes -3.3077
529
root 2.43585 18.1095 -13.5965 2.45662 -0.633621 -4.67924
lowerback 2.10288 2.04365 1.65824
upperback -1.55265 2.84841 2.47888
thorax -2.82003 1.41498 1.48983
lowerneck -17.5162 -0.214849 4.90382
upperneck 23.4599 -0.687969 -3.95569
head 10.3672 -0.351715 -2.33017
rclavicle -1.30491e-014 -1.80894e-014
rhumerus -38.6255 -14.0718 -72.512
rradius 30.9269
rwrist -7.1149
rhand -17.3641 -4.19387
rfingers 7.12502
rthumb 8.88399 -33.9868
lclavicle -1.30491e-014 -1.80894e-014
lhumerus -44.0462 -2.2046 84.0356
lradius 38.1848
lwrist 14.2805
lhand -12.6115 1.23114
lfingers 7.12502
lthumb 13.4676 30.7757
rfemur 4.50405 -5.76896 18.1136
rtibia 44.4164
rfoot 14.3388 3.93056
rtoes -1.40481
lfemur -16.2676 0.769622 -20.0825
ltibia 27.8859
lfoot -10.2511 10.4584
ltoes -3.17548
530
root 2.45396 18.1119 -13.5404 2.38877 -0.801545 -4.50674
lowerback 2.13823 1.9837 1.50246
upperback -1.53759 2.76302 2.44942
thorax -2.82882 1.37506 1.54932
lowerneck -17.5307 -0.15675 4.98979
upperneck 23.5472 -0.61291 -4.02606
head 10.405 -0.317454 -2.36167
rclavicle 3.02083e-014 2.60408e-014
rhumerus -38.6817 -14.1552 -72.4262
rradius 30.864
rwrist -7.0505
rhand -17.3519 -4.1614
rfingers 7.12502
rthumb 8.89582 -33.9539
lclavicle 3.02083e-014 2.60408e-014
lhumerus -43.782 -2.24131 84.0788
lradius 38.0914
lwrist 14.2458
lhand -12.5998 1.24096
lfingers 7.12502
lthumb 13.4789 30.7848
rfemur 3.79972 -5.79117 17.6412
rtibia 45.73
rfoot 15.0353 4.37859
rtoes 0.931568
lfemur -15.8413 0.83672 -20.3425
ltibia 27.6438
lfoot -10.2531 10.5725
ltoes -3.05842
531
root 2.47163 18.1143 -13.4857 2.32171 -0.970692 -4.3697
lowerback 2.16726 1.9221 1.3809
upperback -1.51925 2.67652 2.43257
thorax -2.82939 1.33408 1.60314
lowerneck -17.492 -0.0785294 5.12103
upperneck 23.5254 -0.512059 -4.13241
head 10.3941 -0.272457 -2.40733
rclavicle -2.43325e-014 4.96962e-015
rhumerus -38.7461 -14.2094 -72.3544
rradius 30.8332
rwrist -7.01213
rhand -17.3318 -4.12473
rfingers 7.12502
rthumb 8.91515 -33.9164
lclavicle -2.43325e-014 4.96962e-015
lhumerus -43.5211 -2.29042 84.1299
lradius 38.024
lwrist 14.2285
lhand -12.5897 1.27138
lfingers 7.12502
lthumb 13.4887 30.8146
rfemur 3.06838 -5.77889 17.2359
rtibia 47.0333
rfoot 15.5242 4.73522
rtoes 2.8125
lfemur -15.4302 0.900213 -20.5619
ltibia 27.4134
lfoot -10.2685 10.6922
ltoes -2.9282
532
root 2.48873 18.1168 -13.432 2.25537 -1.13971 -4.26296
lowerback 2.19531 1.85957 1.28526
upperback -1.50189 2.58988 2.42643
thorax -2.82948 1.29261 1.65361
lowerneck -17.4347 -0.00304424 5.24909
upperneck 23.4707 -0.41372 -4.23839
head 10.3678 -0.229048 -2.45179
rclavicle -8.54036e-015 1.03368e-014
rhumerus -38.8277 -14.2305 -72.2996
rradius 30.8412
rwrist -7.00459
rhand -17.317 -4.10322
rfingers 7.12502
rthumb 8.92947 -33.8943
lclavicle -8.54036e-015 1.03368e-014
lhumerus -43.2708 -2.36087 84.19
lradius 37.9828
lwrist 14.2246
lhand -12.5933 1.32499
lfingers 7.12502
lthumb 13.4852 30.8684
rfemur 2.30658 -5.7332 16.8962
rtibia 48.3327
rfoot 15.7791 4.96711
rtoes 4.15673
lfemur -15.0322 0.949046 -20.7454
ltibia 27.1948
lfoot -10.2913 10.8319
ltoes -2.77741
533
root 2.5052 18.1192 -13.3796 2.18753 -1.31489 -4.1832
lowerback 2.2301 1.79764 1.21306
upperback -1.47941 2.50507 2.42983
thorax -2.82734 1.25167 1.70067
lowerneck -17.3677 0.0585606 5.29519
upperneck 23.4305 -0.328897 -4.2733
head 10.3449 -0.190349 -2.45903
rclavicle 3.82408e-014 1.68967e-014
rhumerus -38.9077 -14.2408 -72.252
rradius 30.8619
rwrist -7.00606
rhand -17.3003 -4.06941
rfingers 7.12502
rthumb 8.94556 -33.8598
lclavicle 3.82408e-014 1.68967e-014
lhumerus -43.0129 -2.44993 84.2559
lradius 37.9426
lwrist 14.2075
lhand -12.6062 1.28619
lfingers 7.12502
lthumb 13.4728 30.8304
rfemur 1.51689 -5.65723 16.6164
rtibia 49.631
rfoot 15.8045 5.05709
rtoes 4.88149
lfemur -14.6469 0.983667 -20.8964
ltibia 26.9906
lfoot -10.3132 10.9956
ltoes -2.59209
